PathFileType	4	(X/Y/Z)	c:/Users/goper/Files/vsCode/490R/osim_files/C15/C15_Fast_02.trc
DataRate	CameraRate	NumFrames	NumMarkers	Units                	OrigDataRate	OrigDataStartFrame	OrigNumFrames
250.00	250.00	7	36	mm	250.0	1062	2123
                Frame#	Time	LPSIS			LASIS			LTH1			LTH2			LTH3			LTH4			LLFE			LMFE			LSH1			LSH2			LSH3			LSH4			LLMAL			LMMAL			LCAL			LMTP5			LTOE			LMTP1			RPSIS			RASIS			RTH1			RTH2			RTH3			RTH4			RLFE			RMFE			RSH1			RSH2			RSH3			RSH4			RLMAL			RMMAL			RCAL			RMTP1			RTOE			RMTP5		
		X1	Y1	Z1	X2	Y2	Z2	X3	Y3	Z3	X4	Y4	Z4	X5	Y5	Z5	X6	Y6	Z6	X7	Y7	Z7	X8	Y8	Z8	X9	Y9	Z9	X10	Y10	Z10	X11	Y11	Z11	X12	Y12	Z12	X13	Y13	Z13	X14	Y14	Z14	X15	Y15	Z15	X16	Y16	Z16	X17	Y17	Z17	X18	Y18	Z18	X19	Y19	Z19	X20	Y20	Z20	X21	Y21	Z21	X22	Y22	Z22	X23	Y23	Z23	X24	Y24	Z24	X25	Y25	Z25	X26	Y26	Z26	X27	Y27	Z27	X28	Y28	Z28	X29	Y29	Z29	X30	Y30	Z30	X31	Y31	Z31	X32	Y32	Z32	X33	Y33	Z33	X34	Y34	Z34	X35	Y35	Z35	X36	Y36	Z36

1062	4.24400	-860.71936	1021.13971	227.52298	-1019.05017	994.90350	308.20856	-993.37457	602.93616	385.29263	-1004.95514	555.88214	371.48776	-1042.18066	619.18317	389.60739	-1052.63293	574.98602	385.46704	-1029.76575	495.33240	363.79739	-1061.81824	469.51584	245.90993	-929.24274	466.24280	358.09158	-893.78009	438.08011	358.77118	-962.87982	416.41736	370.45288	-923.20953	394.44910	370.49631	-715.16418	250.76846	290.91223	-766.35461	237.23837	212.60637	-673.35547	278.95551	232.08565	-738.34924	122.55397	327.42722	-802.93616	87.43674	281.77371	-766.39539	97.22890	217.17973	-877.25665	1026.19250	107.89362	-1039.09448	999.98706	60.03687	-1022.55585	626.32935	15.71776	-1029.16406	581.79095	28.54070	-1081.17603	633.79950	32.23885	-1080.59851	586.27924	39.02086	-1043.17505	491.97995	61.62422	-1015.94769	479.57877	175.22766	-958.48230	388.02658	37.72886	-956.70898	344.04678	36.39242	-1020.84753	377.29022	45.34367	-1008.62531	336.29279	41.35786	-947.59595	85.40697	110.08080	-974.77057	108.53300	198.40834	-883.20270	63.09250	156.15805	-1084.26660	41.06646	203.02831	-1121.85669	59.47321	150.26869	-1062.67908	34.46129	82.93066
1063	4.24800	-865.33179	1021.93463	227.38275	-1023.91400	995.87000	307.76303	-1001.31616	604.47980	385.65338	-1013.04681	558.72992	374.33929	-1049.99463	621.10889	389.73651	-1060.77344	576.95844	385.54019	-1038.35181	496.91183	363.60590	-1070.39014	471.56528	245.70114	-938.79242	466.33325	358.13138	-903.28906	437.67178	357.19162	-972.26508	417.11325	370.25305	-932.85596	394.62051	370.34314	-727.48102	247.65549	290.26666	-777.83698	235.65959	212.78941	-684.06909	275.69064	232.23526	-752.21338	121.11275	328.16492	-817.82855	87.21037	282.50998	-780.63440	95.82688	217.79317	-881.66125	1026.77856	107.76895	-1043.11621	1000.45758	59.54181	-1024.44995	626.52484	15.64006	-1030.69531	581.94867	28.42861	-1083.16870	633.53577	32.17313	-1082.18347	586.06519	38.95189	-1044.10278	491.92621	61.45028	-1017.02759	479.67584	175.14711	-958.91797	388.25452	37.77122	-957.08301	344.27139	36.44693	-1021.28540	377.33768	45.18771	-1008.94720	336.37396	41.20334	-947.70953	85.54710	110.10733	-975.05164	108.75156	198.44943	-883.25348	63.16281	156.19557	-1084.31848	41.06580	203.03926	-1121.91931	59.37754	150.26274	-1062.66870	34.44129	82.92022
1064	4.25200	-870.02087	1022.74994	227.31787	-1028.84180	996.84534	307.39545	-1009.19611	605.97772	385.94333	-1021.27051	560.22772	374.68686	-1057.79700	623.00519	389.79901	-1068.83728	578.92621	385.61752	-1046.77124	498.44681	363.34357	-1078.85718	473.62491	245.47423	-946.74664	466.45782	357.66449	-912.06238	437.43213	357.41501	-981.72510	417.66580	370.06491	-942.57227	394.82251	370.20044	-738.97223	245.15685	290.56918	-788.68341	233.39436	212.97974	-694.96863	272.18756	232.37535	-766.18018	119.37325	328.63550	-832.45966	86.71458	283.14026	-795.14246	94.32329	218.40248	-886.04578	1027.37659	107.67059	-1047.64087	1000.75696	59.17802	-1026.33203	626.68219	15.63548	-1032.49194	582.05139	28.54717	-1085.14587	633.37073	32.03231	-1083.83130	585.83038	38.94949	-1044.98352	491.93427	61.26837	-1018.10944	479.78116	175.05457	-959.43353	388.46744	37.79337	-957.23407	344.78076	36.57544	-1021.62701	377.37442	45.07302	-1009.35187	336.46875	41.08656	-947.84875	85.65966	110.14349	-975.18555	108.89567	198.69215	-883.41272	63.25724	156.25732	-1084.36279	41.05298	203.06567	-1122.02844	59.27063	150.27368	-1062.66223	34.42611	82.90797
1065	4.25600	-874.66803	1023.51367	227.22037	-1033.61230	997.67584	306.98972	-1017.06921	607.50415	386.32846	-1029.43701	561.74463	374.89236	-1065.49524	624.84845	389.87103	-1076.89490	580.91235	385.70200	-1055.24731	499.99326	363.11166	-1087.25830	475.61111	245.23027	-955.46863	466.43640	357.51669	-921.13928	436.99472	357.30417	-991.26465	418.21762	369.88547	-952.30981	394.88434	370.12628	-750.41882	242.48288	290.73218	-801.72675	232.08908	212.66420	-705.89630	268.58057	232.43614	-780.21844	117.44083	329.14545	-847.38708	85.82754	283.79675	-809.73956	92.60510	219.00250	-890.44812	1027.88782	107.56789	-1051.79358	1001.12292	58.75543	-1028.21289	626.81805	15.60022	-1034.72095	581.42889	28.43748	-1086.99963	633.18689	32.08294	-1085.44458	585.66125	38.89149	-1045.94080	491.90753	61.08016	-1019.11578	479.80035	174.95938	-960.02417	388.69000	37.76245	-957.66992	345.01862	36.51434	-1022.67700	376.88931	44.64016	-1009.79596	336.53342	40.99412	-947.98358	85.79594	110.17654	-975.34900	109.07319	198.73343	-882.88159	63.53916	155.96149	-1084.38354	41.05306	203.05780	-1122.03430	59.13227	150.27635	-1062.64087	34.39299	82.90708
1066	4.26000	-879.34418	1024.21826	227.16556	-1038.44836	998.59167	306.57779	-1024.91602	608.94568	386.56247	-1037.50476	563.31311	375.16443	-1073.21802	626.71893	389.90903	-1084.91296	582.82135	385.67694	-1063.57068	501.54181	362.85376	-1095.54211	477.59988	244.98836	-964.20563	466.31137	357.34451	-930.31689	436.50253	357.26044	-1000.70135	418.71945	369.69495	-962.04083	394.94415	370.01178	-761.60925	240.08249	291.43420	-813.36407	229.82579	213.09323	-716.79626	264.94110	232.94371	-794.51709	115.34743	329.70129	-862.20251	84.96122	284.36395	-824.50684	90.77990	219.56479	-894.81592	1028.38770	107.45251	-1055.58716	1001.48840	58.31006	-1030.10742	626.99670	15.59090	-1036.28174	581.56433	28.45552	-1088.87073	632.88538	31.96115	-1086.98987	585.48169	38.86346	-1046.82202	491.89709	60.84657	-1020.03906	479.84598	174.87326	-960.67114	388.92068	37.70839	-958.17224	345.23062	36.46852	-1023.26410	376.97653	44.52358	-1010.27197	336.62326	40.91681	-948.12579	85.92229	110.21752	-975.51086	109.23151	198.79646	-882.96490	63.65609	155.98656	-1084.40955	41.04347	203.06891	-1122.07556	59.05722	150.27054	-1062.62500	34.39655	82.90325
1067	4.26400	-883.95203	1024.88208	227.10657	-1043.26331	999.38654	306.21335	-1032.69788	610.43079	386.94452	-1045.59741	564.87415	375.65128	-1080.86365	628.49701	389.90286	-1092.90271	584.89642	385.72293	-1071.86780	503.08514	362.59641	-1103.83594	479.56845	244.68994	-972.83923	466.13159	357.53867	-939.49750	435.92532	357.24875	-1010.13477	419.21573	369.56039	-971.85541	394.93488	369.91299	-774.09875	236.47104	291.28955	-825.38812	227.63374	213.37538	-728.09155	260.84497	233.16678	-808.82501	113.16186	330.20508	-877.26373	84.06522	284.92947	-839.28339	88.93967	220.19690	-899.24078	1028.87720	107.41985	-1059.68018	1001.69055	58.00122	-1031.86401	627.18652	15.53961	-1037.73389	581.79565	28.31587	-1090.80066	632.77350	31.87779	-1088.59290	585.30133	38.84558	-1047.79688	491.88815	60.67833	-1021.01923	479.89120	174.80544	-961.28363	389.13333	37.67768	-958.71509	345.44159	36.39938	-1023.81854	377.00406	44.46790	-1010.82617	336.76318	40.82935	-948.24976	86.03890	110.27712	-975.77582	109.45139	198.87859	-883.32867	63.57513	156.39671	-1084.48669	41.03440	203.06276	-1122.15381	58.97540	150.27672	-1062.62427	34.37271	82.91222
1068	4.26800	-888.55206	1025.58679	227.13187	-1047.88623	1000.10626	305.87354	-1040.42786	611.85016	387.20679	-1053.60205	566.45093	375.91046	-1088.41394	630.30896	389.88959	-1101.26709	586.54425	384.74292	-1080.28369	504.50641	362.25259	-1111.93140	481.51718	244.38359	-981.55695	466.02643	357.42554	-948.77179	435.32016	357.26904	-1019.61499	419.65134	369.47070	-982.58881	393.93262	369.19577	-786.04999	233.16699	291.52618	-837.40118	225.28691	213.44664	-739.44043	256.53922	233.46371	-823.61804	110.59846	330.62613	-892.45148	83.39711	285.54605	-854.70886	86.77847	221.02431	-903.67487	1029.34534	107.38012	-1064.00488	1002.00018	57.55501	-1033.73486	627.34662	15.51327	-1038.76550	582.52045	28.35537	-1092.67847	632.54919	31.96620	-1090.23901	585.14014	38.82438	-1048.82874	491.94638	60.51926	-1021.90668	479.94000	174.68721	-962.01105	389.37198	37.56578	-959.30359	345.69492	36.34021	-1024.51135	377.12640	44.41061	-1011.34308	336.91293	40.73158	-948.39355	86.23574	110.29827	-976.01562	109.69039	198.89299	-883.49438	63.75770	156.50809	-1084.49548	41.02311	203.06213	-1122.25317	58.92457	150.28706	-1062.63281	34.39322	82.91825
